#!OML:ASF F:\VICON\USERDATA\INSTALL\rory3\rory3.ASF
:FULLY-SPECIFIED
:DEGREES
188
root 0.600894 18.3039 1.39166 -2.07524 -2.73894 -5.39417
lowerback 10.7833 0.632036 3.23042
upperback 0.144394 1.41108 2.77876
thorax -5.90036 0.640528 0.873477
lowerneck -17.1492 -3.03893 -1.18945
upperneck 16.8441 -4.14043 1.37563
head 8.0993 -1.89928 0.1607
rclavicle -7.06928e-015 -1.13307e-014
rhumerus -29.3821 -15.5198 -80.5296
rradius 28.2896
rwrist 1.7927
rhand -15.6266 16.5359
rfingers 7.12502
rthumb 10.5604 -13.1788
lclavicle -7.06928e-015 -1.13307e-014
lhumerus -30.7982 -2.20767 86.4538
lradius 28.5143
lwrist 12.634
lhand -26.3635 19.2679
lfingers 7.12502
lthumb 0.194651 49.2476
rfemur -10.1077 6.08702 32.7313
rtibia 26.5326
rfoot -10.5391 -4.34612
rtoes 9.76831
lfemur -17.5056 4.16323 -14.3492
ltibia 68.0608
lfoot 0.297424 -7.17446
ltoes -3.79616
189
root 0.595901 18.3042 1.54888 -2.05156 -2.81729 -5.74017
lowerback 10.9429 0.647821 3.59234
upperback 0.098238 1.4933 2.8582
thorax -6.03221 0.669529 0.739143
lowerneck -17.3848 -2.91699 -1.2384
upperneck 17.1322 -3.95156 1.31551
head 8.23459 -1.81537 0.165781
rclavicle 9.18137e-015 1.43125e-014
rhumerus -29.0672 -14.9031 -80.7128
rradius 28.5367
rwrist 2.25463
rhand -16.0833 19.5505
rfingers 7.12502
rthumb 10.1198 -10.1861
lclavicle 9.18137e-015 1.43125e-014
lhumerus -30.8713 -1.07648 86.006
lradius 28.1137
lwrist 10.9015
lhand -25.435 20.5719
lfingers 7.12502
lthumb 1.09144 50.5489
rfemur -9.47827 6.23867 33.1996
rtibia 26.5537
rfoot -11.0709 -4.58739
rtoes 9.99566
lfemur -18.5681 4.34174 -13.9723
ltibia 68.0901
lfoot -1.34511 -6.15908
ltoes -7.09641
190
root 0.593899 18.274 1.70317 -2.09978 -2.85237 -6.01581
lowerback 11.1753 0.682226 3.98182
upperback 0.0690282 1.60353 2.84732
thorax -6.18257 0.709212 0.488758
lowerneck -17.4274 -2.85836 -1.22969
upperneck 17.1501 -3.87701 1.33448
head 8.24739 -1.77708 0.179055
rclavicle -5.95112e-015 4.37326e-015
rhumerus -28.7508 -14.5472 -80.9014
rradius 28.7079
rwrist 2.43262
rhand -16.2719 21.3387
rfingers 7.12502
rthumb 9.93784 -8.40667
lclavicle -5.95112e-015 4.37326e-015
lhumerus -30.9656 -0.149119 85.504
lradius 27.7793
lwrist 9.09027
lhand -25.8116 21.1567
lfingers 7.12502
lthumb 0.727713 51.1352
rfemur -8.83107 6.38573 33.5868
rtibia 26.6435
rfoot -11.7002 -4.87999
rtoes 9.4362
lfemur -19.7278 4.52946 -13.6661
ltibia 68.0276
lfoot -3.47432 -5.05612
ltoes -14.3094
191
root 0.595599 18.2528 1.86578 -2.1194 -2.89797 -6.10842
lowerback 11.2433 0.778591 4.27087
upperback 0.116033 1.76407 2.74038
thorax -6.15606 0.778166 0.187365
lowerneck -17.5912 -2.89526 -1.17179
upperneck 17.2452 -3.94116 1.32478
head 8.30769 -1.80258 0.155523
rclavicle 4.24902e-015 -2.54444e-014
rhumerus -28.3905 -14.325 -81.1006
rradius 28.9295
rwrist 2.00877
rhand -16.2308 21.2223
rfingers 7.12502
rthumb 9.97746 -8.5212
lclavicle 4.24902e-015 -2.54444e-014
lhumerus -31.0284 0.2644 85.1732
lradius 27.9262
lwrist 7.70482
lhand -24.1068 25.3425
lfingers 7.12502
lthumb 2.37417 55.309
rfemur -8.25805 6.39859 33.7452
rtibia 26.8672
rfoot -12.3289 -5.13808
rtoes 9.29857
lfemur -20.9152 4.60976 -13.5966
ltibia 67.7301
lfoot -2.91188 -4.87915
ltoes -9.84262
192
root 0.593457 18.2433 2.02661 -2.0642 -2.95107 -6.20865
lowerback 11.2306 0.847802 4.4993
upperback 0.133193 1.87858 2.65784
thorax -6.11779 0.826968 -0.0455684
lowerneck -17.6765 -2.92958 -1.26678
upperneck 17.367 -3.98727 1.43319
head 8.36894 -1.81764 0.19946
rclavicle 6.41081e-015 -1.59028e-015
rhumerus -28.0011 -14.1901 -81.2867
rradius 29.1566
rwrist 1.72209
rhand -15.8601 19.7977
rfingers 7.12502
rthumb 10.3351 -9.92832
lclavicle 6.41081e-015 -1.59028e-015
lhumerus -31.4289 -0.0144888 85.2442
lradius 28.2277
lwrist 9.01839
lhand -23.9729 25.0318
lfingers 7.12502
lthumb 2.5035 54.9969
rfemur -7.8809 6.56313 33.9408
rtibia 27.1983
rfoot -12.7005 -5.53619
rtoes 10.3877
lfemur -22.16 4.61141 -13.5189
ltibia 67.1766
lfoot -3.13027 -4.64753
ltoes -7.75414
193
root 0.589401 18.2236 2.17881 -1.95105 -3.04276 -6.4004
lowerback 11.2709 0.919431 4.71523
upperback 0.120037 2.00507 2.65682
thorax -6.14347 0.881727 -0.188637
lowerneck -17.6382 -2.96142 -1.14743
upperneck 17.2057 -4.01091 1.20061
head 8.3001 -1.84682 0.101111
rclavicle -1.80397e-014 -5.24792e-014
rhumerus -27.5903 -13.8899 -81.4458
rradius 29.3487
rwrist 1.45637
rhand -15.8221 18.6157
rfingers 7.12502
rthumb 10.3718 -11.1085
lclavicle -1.80397e-014 -5.24792e-014
lhumerus -31.5759 0.297032 85.1374
lradius 27.9778
lwrist 8.94597
lhand -23.8375 24.0283
lfingers 7.12502
lthumb 2.63426 53.9918
rfemur -7.59532 6.7393 34.2271
rtibia 27.4645
rfoot -13.0863 -5.77667
rtoes 10.6021
lfemur -23.3894 4.64698 -13.3351
ltibia 66.4918
lfoot -3.90145 -4.10448
ltoes -9.19816
